<?xml version="1.0" encoding="UTF-8" standalone="no"?>
<!-- Created with Inkscape (http://www.inkscape.org/) -->

<svg
   width="168.73608mm"
   height="169.16707mm"
   viewBox="0 0 168.73608 169.16707"
   version="1.1"
   id="svg5"
   inkscape:version="1.1.2 (b8e25be833, 2022-02-05)"
   sodipodi:docname="HLTV 2017 (Icon).svg"
   xmlns:inkscape="http://www.inkscape.org/namespaces/inkscape"
   xmlns:sodipodi="http://sodipodi.sourceforge.net/DTD/sodipodi-0.dtd"
   xmlns="http://www.w3.org/2000/svg"
   xmlns:svg="http://www.w3.org/2000/svg">
  <sodipodi:namedview
     id="namedview7"
     pagecolor="#ffffff"
     bordercolor="#666666"
     borderopacity="1.0"
     inkscape:pageshadow="2"
     inkscape:pageopacity="0.0"
     inkscape:pagecheckerboard="0"
     inkscape:document-units="mm"
     showgrid="false"
     inkscape:zoom="0.64052329"
     inkscape:cx="915.65757"
     inkscape:cy="221.69373"
     inkscape:window-width="1920"
     inkscape:window-height="1017"
     inkscape:window-x="-8"
     inkscape:window-y="-8"
     inkscape:window-maximized="1"
     inkscape:current-layer="layer1" />
  <defs
     id="defs2" />
  <g
     inkscape:label="Layer 1"
     inkscape:groupmode="layer"
     id="layer1"
     transform="translate(137.13894,-89.520895)">
    <g
       id="g864"
       transform="matrix(1.0774973,0,0,1.0774973,-163.21437,-95.269892)">
	<path
   class="st0"
   d="m 103.6,211.9 c 2,-1.1 4.6,1.1 3.8,3.3 -0.5,2 -3.4,2.6 -4.7,0.9 -1.2,-1.3 -0.7,-3.5 0.9,-4.2 z"
   id="path826"
   style="fill:#ffffff;fill-opacity:1" />

	<path
   class="st0"
   d="m 82.2,214.2 c 2.1,-1.5 5.2,0.7 4.7,3.2 -0.2,2.2 -3.1,3.4 -4.8,2 -2,-1.1 -1.8,-4.1 0.1,-5.2 z"
   id="path828"
   style="fill:#ffffff;fill-opacity:1" />

	<path
   class="st0"
   d="m 121,216.1 c 1.9,-1 4.2,1.3 3.1,3.2 -0.7,1.6 -3.2,1.7 -4,0.2 -0.9,-1.1 -0.4,-2.8 0.9,-3.4 z"
   id="path830"
   style="fill:#ffffff;fill-opacity:1" />

	<path
   class="st0"
   d="m 115.7,251.8 c 18.1,-8.4 34.7,-19.5 49.8,-32.4 -4,4.8 -8.9,8.9 -13.4,13.2 -13.2,11.9 -27.7,22.4 -43.2,31.1 -5.5,3.2 -11.3,6.1 -16.6,9.7 -3,2.1 -6.1,5.2 -5.8,9.2 0,5.6 4.2,10.3 9,12.7 -8.2,-0.1 -16.5,0 -24.7,0 -0.8,0.1 -1.5,-0.2 -2.1,-0.8 -4.3,-4.1 -5.7,-10.9 -3.8,-16.4 2.4,-5.8 8.5,-8.6 13.8,-11.1 12.3,-5.2 24.9,-9.4 37,-15.2 z"
   id="path832" />

	<path
   class="st0"
   d="m 132.1,224.6 c 1.9,-1.5 4.3,1.6 2.4,3 -1.9,1.9 -4.5,-1.6 -2.4,-3 z"
   id="path834"
   style="fill:#ffffff;fill-opacity:1" />

	<path
   class="st0"
   d="m 62,230.1 c 2.4,-1.6 5.9,0.4 5.9,3.3 0.2,2.8 -3.2,5 -5.7,3.6 -2.7,-1.2 -2.8,-5.5 -0.2,-6.9 z"
   id="path836"
   style="fill:#ffffff;fill-opacity:1" />

	<path
   class="st0"
   d="m 50.9,255.8 c 2.4,-1.7 6,0.3 5.9,3.2 0.2,2.8 -3.1,5 -5.6,3.6 -2.7,-1.2 -2.9,-5.4 -0.3,-6.8 z"
   id="path838"
   style="fill:#ffffff;fill-opacity:1" />

	<path
   class="st1"
   d="m 24.2,171.5 c 52.2,0 104.4,0 156.6,0 0,52.3 0,104.6 0,157 -52.2,0 -104.4,0 -156.6,0 0,-52.3 0,-104.7 0,-157 z"
   id="path840"
   style="fill:#2b6ea4;fill-opacity:1" />

	<path
   class="st0"
   d="m 103.6,211.9 c -1.5,0.7 -2.1,2.9 -0.9,4.2 1.2,1.7 4.1,1.1 4.7,-0.9 0.8,-2.1 -1.8,-4.4 -3.8,-3.3 z"
   id="path842"
   style="fill:#ffffff;fill-opacity:1" />

	<path
   class="st0"
   d="m 82.2,214.2 c -1.9,1 -2,4 -0.2,5.2 1.7,1.4 4.6,0.1 4.8,-2 0.6,-2.5 -2.5,-4.6 -4.6,-3.2 z"
   id="path844"
   style="fill:#ffffff;fill-opacity:1" />

	<path
   class="st0"
   d="m 121,216.1 c -1.2,0.6 -1.8,2.3 -0.9,3.4 0.8,1.5 3.3,1.4 4,-0.2 1,-1.9 -1.3,-4.2 -3.1,-3.2 z"
   id="path846"
   style="fill:#ffffff;fill-opacity:1" />

	<path
   class="st0"
   d="m 115.7,251.8 c -12,5.8 -24.7,9.9 -37,15.1 -5.3,2.5 -11.4,5.3 -13.8,11.1 -1.9,5.5 -0.6,12.3 3.8,16.4 0.5,0.6 1.2,0.9 2.1,0.8 8.2,0 16.5,-0.1 24.7,0 -4.8,-2.4 -9,-7.1 -9,-12.7 -0.3,-4 2.8,-7 5.8,-9.2 5.3,-3.6 11,-6.5 16.6,-9.7 15.5,-8.7 30,-19.2 43.2,-31.1 4.6,-4.3 9.4,-8.4 13.4,-13.2 -15.1,13 -31.8,24.2 -49.8,32.5 z"
   id="path848"
   style="fill:#ffffff;fill-opacity:1" />

	<path
   class="st0"
   d="m 132.1,224.6 c -2.2,1.4 0.5,4.9 2.4,3 1.9,-1.4 -0.5,-4.5 -2.4,-3 z"
   id="path850"
   style="fill:#ffffff;fill-opacity:1" />

	<path
   class="st0"
   d="m 62,230.1 c -2.6,1.4 -2.5,5.7 0.2,6.9 2.5,1.4 5.8,-0.8 5.7,-3.6 0.1,-2.9 -3.5,-4.9 -5.9,-3.3 z"
   id="path852"
   style="fill:#ffffff;fill-opacity:1" />

	<path
   class="st0"
   d="m 50.9,255.8 c -2.6,1.4 -2.4,5.7 0.3,6.8 2.5,1.4 5.8,-0.8 5.6,-3.6 0.1,-2.9 -3.5,-4.9 -5.9,-3.2 z"
   id="path854"
   style="fill:#ffffff;fill-opacity:1" />

	
	
	
	
</g>
  </g>
  <style
     type="text/css"
     id="style824">
	.st0{fill:#FFFFFF;}
	.st1{fill:#3E6EA0;}
</style>
</svg>
